<?xml version="1.0" encoding="UTF-8" standalone="no"?>
<!DOCTYPE svg PUBLIC "-//W3C//DTD SVG 1.1//EN" "http://www.w3.org/Graphics/SVG/1.1/DTD/svg11.dtd">
<svg width="100%" height="100%" viewBox="0 0 1047 298" version="1.1" xmlns="http://www.w3.org/2000/svg" xmlns:xlink="http://www.w3.org/1999/xlink" xml:space="preserve" xmlns:serif="http://www.serif.com/" style="fill-rule:evenodd;clip-rule:evenodd;stroke-linejoin:round;stroke-miterlimit:2;">
    <g transform="matrix(1,0,0,1,-51.829956,-42.217971)">
        <g transform="matrix(1.03181,0,0,0.821339,3889.059649,-31.997198)">
            <g id="Logo" transform="matrix(0.676224,0,0,0.849509,-3860.938307,-187.442778)">
                <g transform="matrix(1,0,0,1,362.2618,753.1453)">
                    <path d="M0,-426.131C10.548,-426.131 19.459,-423.215 26.741,-417.399C34.015,-411.575 38.014,-402.843 38.748,-391.203C38.748,-381.738 35.38,-373.74 28.651,-367.191C21.915,-360.642 13.456,-357.001 3.275,-356.276C-4.366,-355.909 -10.369,-353.18 -14.735,-348.09C-19.101,-342.99 -21.284,-336.988 -21.284,-330.08L-21.284,-276.598C-4.553,-275.865 7.001,-272.138 13.371,-265.41C19.732,-258.673 22.921,-250.402 22.921,-240.579C22.921,-230.756 19.826,-222.569 13.644,-216.021C7.453,-209.472 -4.187,-205.831 -21.284,-205.106L-21.284,-95.411C-21.284,-84.855 -23.015,-74.673 -26.468,-64.85C-29.93,-55.027 -34.748,-46.21 -40.931,-38.382C-47.121,-30.562 -54.489,-23.562 -63.033,-17.37C-71.586,-11.188 -81.315,-6.455 -92.23,-3.181C-98.779,-0.998 -105.516,0 -112.423,-0.18C-119.338,-0.367 -125.614,-1.817 -131.251,-4.545C-136.896,-7.274 -141.714,-11.188 -145.713,-16.279C-149.721,-21.378 -151.904,-27.927 -152.262,-35.926C-152.262,-45.391 -148.902,-53.483 -142.166,-60.211C-135.438,-66.947 -127.345,-70.495 -117.88,-70.853C-110.606,-70.853 -104.509,-73.497 -99.598,-78.766C-94.686,-84.036 -92.23,-89.955 -92.23,-96.503L-92.23,-205.106C-109.336,-205.106 -120.796,-208.38 -126.612,-214.929C-132.436,-221.478 -135.711,-230.022 -136.435,-240.579C-136.435,-250.036 -133.348,-258.128 -127.158,-264.865C-120.975,-271.592 -109.336,-275.506 -92.23,-276.598L-92.23,-330.626C-92.23,-342.99 -89.868,-354.912 -85.136,-366.372C-80.411,-377.833 -73.863,-388.014 -65.489,-396.933C-57.124,-405.845 -47.3,-412.94 -36.019,-418.217C-24.746,-423.487 -12.74,-426.131 0,-426.131" style="fill:rgb(38,194,66);fill-rule:nonzero;"/>
                </g>
                <g transform="matrix(1,0,0,1,459.404,676.4676)">
                    <path d="M0,-265.409C9.457,-265.409 17.822,-261.862 25.104,-254.767C32.378,-247.673 36.019,-239.026 36.019,-228.845L36.019,-132.794C36.019,-124.42 37.656,-116.507 40.931,-109.054C44.205,-101.593 48.571,-95.138 54.028,-89.68C59.486,-84.223 65.941,-79.857 73.402,-76.583C80.855,-73.308 88.768,-71.671 97.142,-71.671C105.141,-71.671 112.781,-73.121 120.063,-76.036C127.337,-78.945 133.792,-82.944 139.437,-88.043C145.074,-93.134 149.533,-99.316 152.808,-106.598C156.082,-113.872 157.719,-121.691 157.719,-130.065L157.719,-229.39C157.719,-238.48 161.173,-246.666 168.088,-253.949C174.996,-261.222 183.369,-265.043 193.192,-265.409C203.016,-265.409 211.475,-261.862 218.569,-254.767C225.664,-247.673 229.39,-239.759 229.757,-231.027L229.757,-132.794C229.757,-114.597 226.295,-97.5 219.388,-81.494C212.473,-65.48 203.016,-51.479 191.01,-39.472C179.003,-27.466 164.993,-18.001 148.987,-11.093C132.973,-4.178 115.697,-0.724 97.142,-0.724C79.678,0 62.939,-2.993 46.934,-9.729C30.92,-16.457 16.824,-25.735 4.639,-37.562C-7.555,-49.381 -17.285,-63.212 -24.558,-79.039C-31.841,-94.865 -35.473,-111.51 -35.473,-128.974L-35.473,-229.39C-35.473,-238.847 -32.114,-247.126 -25.377,-254.221C-18.649,-261.316 -10.19,-265.043 0,-265.409" style="fill:rgb(38,194,66);fill-rule:nonzero;"/>
                </g>
                <g transform="matrix(1,0,0,1,884.9219,625.8553)">
                    <path d="M0,-138.127C-24.124,-119.824 -57.962,-114.931 -85.79,-117.131L-85.207,-116.639C-94.255,-109.782 -94.255,-67.733 -94.255,-67.733L-94.255,17.687C-94.986,27.154 -98.533,34.971 -104.897,41.154C-111.26,47.345 -119.726,50.432 -130.269,50.432C-140.098,50.432 -148.284,47.255 -154.829,40.883C-161.381,34.519 -165.018,26.062 -165.741,15.502L-165.741,-67.733C-165.741,-124.488 -134.933,-146.856 -128.192,-151.068C-128.192,-151.076 -128.183,-151.076 -128.175,-151.076C-118.026,-160.289 -100.799,-167.868 -99.453,-168.459C-84.262,-175.036 -72.726,-172.45 -67.372,-165.372C-63.332,-160.018 -92.851,-156.405 -92.744,-151.388C-92.638,-146.445 -28.222,-134.079 -14.066,-163.738C-2.718,-187.509 9.04,-188.559 10.174,-186.121C18.664,-167.802 10.354,-145.977 0,-138.127" style="fill:rgb(38,194,66);fill-rule:nonzero;"/>
                </g>
                <g transform="matrix(1,0,0,1,954.3915,593.8823)">
                    <path d="M0,-180.641C9.457,-180.641 17.37,-177.179 23.74,-170.272C30.101,-163.356 33.648,-154.991 34.382,-145.167L34.382,48.025C34.382,57.848 31.286,66.034 25.104,72.583C18.913,79.132 10.548,82.765 0,83.498C-9.465,83.498 -17.464,80.591 -24.013,74.766C-30.561,68.951 -34.569,60.765 -36.019,50.208L-36.019,-147.351C-35.294,-156.807 -31.474,-164.627 -24.558,-170.817C-17.651,-177 -9.465,-180.274 0,-180.641M0,-264.139C9.457,-264.139 17.549,-260.592 24.285,-253.498C31.013,-246.403 34.382,-238.123 34.382,-228.666C34.382,-219.201 31.013,-210.93 24.285,-203.835C17.549,-196.74 9.457,-193.193 0,-193.193C-10.557,-193.551 -19.195,-196.919 -25.923,-203.289C-32.659,-209.65 -36.019,-218.655 -36.019,-230.303C-35.661,-239.76 -31.926,-247.767 -24.831,-254.316C-17.737,-260.864 -9.465,-264.139 0,-264.139" style="fill:rgb(38,194,66);fill-rule:nonzero;"/>
                </g>
                <g transform="matrix(1,0,0,1,1108.2904,753.145)">
                    <path d="M0,-423.402C9.457,-423.402 17.549,-419.855 24.286,-412.76C31.014,-405.665 34.382,-397.385 34.382,-387.929C34.382,-378.464 31.014,-370.193 24.286,-363.098C17.549,-356.003 9.457,-352.455 0,-352.455C-10.557,-352.814 -19.195,-356.182 -25.923,-362.552C-32.659,-368.913 -36.019,-377.918 -36.019,-389.566C-35.661,-399.023 -31.926,-407.03 -24.831,-413.578C-17.736,-420.127 -9.465,-423.402 0,-423.402M0,-339.904C9.457,-339.904 17.37,-336.441 23.74,-329.535C30.101,-322.619 33.649,-314.254 34.382,-304.43L34.382,-95.411C34.74,-84.854 33.196,-74.673 29.743,-64.849C26.281,-55.027 21.463,-46.209 15.281,-38.381C9.09,-30.562 1.723,-23.561 -6.821,-17.37C-15.375,-11.188 -25.104,-6.455 -36.019,-3.181C-42.568,-0.998 -49.304,0 -56.211,-0.18C-63.127,-0.367 -69.403,-1.816 -75.039,-4.545C-80.684,-7.274 -85.502,-11.188 -89.501,-16.279C-93.509,-21.378 -95.692,-27.927 -96.05,-35.925C-96.05,-45.391 -92.691,-53.483 -85.954,-60.211C-79.226,-66.947 -71.134,-70.495 -61.669,-70.853C-54.395,-70.853 -48.298,-73.497 -43.387,-78.766C-38.475,-84.036 -36.019,-89.954 -36.019,-96.503L-36.019,-306.613C-35.294,-316.07 -31.474,-323.89 -24.558,-330.08C-17.651,-336.262 -9.465,-339.536 0,-339.904" style="fill:rgb(38,194,66);fill-rule:nonzero;"/>
                </g>
                <g transform="matrix(1,0,0,1,1305.3036,482.5505)">
                    <path d="M0,122.246C8.365,122.246 16.278,120.703 23.74,117.607C31.193,114.521 37.656,110.24 43.113,104.782C48.571,99.325 52.937,92.87 56.211,85.408C59.486,77.956 61.123,69.855 61.123,61.123C61.123,53.124 59.486,45.39 56.211,37.929C52.937,30.476 48.477,23.928 42.84,18.283C37.196,12.646 30.647,8.186 23.194,4.911C15.733,1.637 7.999,-0 0,-0C-8.007,-0 -15.648,1.637 -22.921,4.911C-30.203,8.186 -36.659,12.646 -42.295,18.283C-47.94,23.928 -52.391,30.476 -55.666,37.929C-58.94,45.39 -60.577,53.124 -60.577,61.123C-60.577,69.497 -58.855,77.411 -55.393,84.863C-51.939,92.324 -47.394,98.779 -41.749,104.237C-36.113,109.694 -29.658,114.06 -22.375,117.335C-15.102,120.609 -7.641,122.246 0,122.246M15.826,-70.401C32.198,-68.576 47.565,-63.852 61.942,-56.212C76.31,-48.571 88.683,-38.833 99.052,-27.014C109.421,-15.187 117.607,-1.722 123.61,13.371C129.614,28.473 132.615,44.393 132.615,61.123L132.615,157.72C132.615,167.543 128.974,175.916 121.7,182.824C114.418,189.739 106.232,193.193 97.142,193.193C84.402,193.193 74.221,187.377 66.58,175.729C64.755,176.463 63.118,177.281 61.669,178.185C60.21,179.097 58.752,179.916 57.303,180.64C48.571,184.649 39.651,187.735 30.561,189.918C21.096,192.101 11.094,193.193 0.546,193.193C-26.741,193.193 -51.121,185.825 -72.584,171.09C-94.055,156.355 -110.061,137.348 -120.609,114.06C-124.25,105.695 -127.073,97.142 -129.068,88.41C-131.072,79.678 -132.07,70.588 -132.07,61.123C-132.07,51.667 -131.072,42.568 -129.068,33.836C-127.073,25.104 -124.25,16.56 -120.609,8.186C-110.061,-15.46 -94.055,-34.56 -72.584,-49.117C-51.121,-63.664 -26.741,-70.947 0.546,-70.947L8.459,-70.947C10.821,-70.947 13.277,-70.759 15.826,-70.401" style="fill:rgb(38,194,66);fill-rule:nonzero;"/>
                </g>
                <g transform="matrix(1,0,0,1,1507.2277,675.7433)">
                    <path d="M0,-348.729C10.181,-348.729 18.734,-345.182 25.65,-338.087C32.557,-330.993 36.377,-322.166 37.11,-311.619L37.11,-267.96L130.978,-267.96C141.526,-267.96 150.079,-264.318 156.628,-257.045C163.177,-249.762 166.451,-241.218 166.451,-231.394C166.451,-221.929 162.81,-213.47 155.536,-206.018C148.254,-198.556 140.068,-194.83 130.978,-194.83L37.11,-194.83L37.11,-134.799C37.11,-126.425 38.654,-118.511 41.749,-111.059C44.836,-103.597 49.117,-96.954 54.574,-91.139C60.031,-85.315 66.487,-80.77 73.948,-77.496C81.401,-74.221 89.501,-72.583 98.233,-72.583C107.69,-72.583 115.782,-73.854 122.519,-76.404C129.247,-78.945 135.156,-82.765 140.255,-87.865C147.896,-94.413 156.355,-97.773 165.633,-97.961C174.91,-98.14 183.548,-94.592 191.555,-87.318C195.188,-84.044 197.917,-80.309 199.742,-76.131C201.558,-71.944 202.555,-67.578 202.743,-63.033C202.922,-58.479 202.283,-54.028 200.833,-49.663C199.375,-45.297 197.013,-41.477 193.738,-38.202C180.998,-25.829 166.997,-16.373 151.716,-9.824C136.435,-3.275 120.063,0 102.599,0C83.677,0 65.847,-3.181 49.117,-9.55C32.378,-15.912 17.643,-25.01 4.911,-36.838C-7.828,-48.657 -17.924,-62.846 -25.377,-79.406C-32.838,-95.957 -36.752,-114.418 -37.111,-134.799L-37.111,-314.347C-37.111,-324.17 -33.384,-332.357 -25.923,-338.905C-18.47,-345.454 -9.824,-348.729 0,-348.729" style="fill:rgb(38,194,66);fill-rule:nonzero;"/>
                </g>
                <g transform="matrix(1,0,0,1,790.6292,393.557)">
                    <path d="M0,-16.285C1.261,-14.628 3.288,-11.975 4.91,-9.831C7.476,-6.421 -3.243,0.052 11.562,19.321C20.492,30.942 48.286,40.214 51.251,41.071C52.802,41.542 53.994,41.6 54.369,40.874C54.679,40.243 54.354,39.365 53.527,38.476C49.959,34.635 47.401,33.29 42.562,29.721C34.278,23.611 23.455,4.254 29.251,5.792C35.049,7.331 49.148,11.311 62.886,-3.344C76.284,-17.639 73.446,-35.125 73.301,-35.979C73.23,-35.686 72.304,-33.284 58.928,-18.068C57.891,-16.884 56.854,-15.848 55.793,-14.912C63.896,-36.215 55.251,-57.885 55.251,-57.885C53.076,-27.534 32.993,-15.524 24.806,-11.866C22.373,-14.027 20.982,-18.569 15.227,-21.452C10.829,-23.651 3.872,-20.608 0.595,-18.905C-0.38,-18.402 -0.664,-17.157 0,-16.285" style="fill:rgb(38,194,66);fill-rule:nonzero;"/>
                </g>
            </g>
        </g>
    </g>
</svg>
